<?xml version="1.0" standalone="no"?>
<!DOCTYPE svg PUBLIC "-//W3C//DTD SVG 20010904//EN"
 "http://www.w3.org/TR/2001/REC-SVG-20010904/DTD/svg10.dtd">
<svg version="1.0" xmlns="http://www.w3.org/2000/svg"
 width="1280.000000pt" height="906.000000pt" viewBox="0 0 1280.000000 906.000000"
 preserveAspectRatio="xMidYMid meet">
<g transform="translate(0.000000,906.000000) scale(0.100000,-0.100000)"
fill="#000000" stroke="none">
<path d="M6453 8963 c-21 -38 -252 -455 -514 -927 l-477 -859 18 -47 c10 -26
39 -82 64 -124 261 -442 819 -789 1479 -920 132 -26 324 -53 330 -45 11 13
1047 1881 1047 1888 0 5 -33 12 -72 15 -203 20 -482 82 -663 148 -241 88 -514
243 -703 401 -163 137 -353 352 -429 487 -15 28 -31 50 -35 50 -4 0 -24 -30
-45 -67z"/>
<path d="M8737 7794 c-355 -635 -987 -1781 -987 -1791 0 -7 7 -13 17 -13 42 0
344 -75 488 -121 372 -119 705 -294 985 -517 124 -99 318 -293 407 -409 52
-67 74 -89 81 -80 8 10 621 1121 972 1760 l103 188 -34 49 c-173 248 -496 518
-839 703 -295 159 -725 289 -1066 322 l-72 7 -55 -98z"/>
<path d="M5192 6718 c-92 -154 -1032 -1861 -1032 -1875 0 -10 18 -49 40 -86
177 -304 505 -580 905 -764 254 -116 662 -230 890 -249 l70 -6 365 659 c513
925 710 1284 710 1294 0 5 -4 9 -9 9 -5 0 -74 11 -154 24 -715 122 -1349 471
-1682 928 -38 53 -73 97 -77 97 -3 1 -15 -14 -26 -31z"/>
<path d="M7507 5578 c-141 -243 -1056 -1903 -1050 -1905 4 -1 87 -18 183 -37
311 -62 552 -142 815 -272 380 -186 727 -472 935 -771 24 -35 47 -63 51 -63 4
0 31 44 60 98 29 53 260 475 514 937 254 462 470 855 479 873 l17 33 -45 73
c-211 338 -590 643 -1038 835 -248 106 -575 197 -850 235 l-47 7 -24 -43z"/>
</g>
</svg>
